#!OML:ASF F:\VICON\USERDATA\INSTALL\rory3\rory3.ASF
:FULLY-SPECIFIED
:DEGREES
142
root -10.1174 17.7337 -8.07584 -91.518 85.9707 -94.4275
lowerback 11.748 2.69802 5.31927
upperback 0.893724 4.36503 0.606048
thorax -5.29389 2.05373 -3.04526
lowerneck -15.9028 -5.47764 -11.3278
upperneck 37.8666 -4.76323 4.98815
head 16.8893 -2.40609 3.4869
rclavicle -6.68413e-015 -1.81888e-014
rhumerus -32.1255 -9.50505 -80.8828
rradius 30.7987
rwrist 5.39577
rhand -13.9708 8.76399
rfingers 7.12502
rthumb 12.1573 -20.8628
lclavicle -6.68413e-015 -1.81888e-014
lhumerus -38.4969 7.59615 81.9535
lradius 29.2682
lwrist -6.16946
lhand -18.7675 24.834
lfingers 7.12502
lthumb 7.52953 54.6799
rfemur 13.0658 -4.9387 29.5898
rtibia 4.0554
rfoot -11.3913 -8.22493
rtoes -6.31589
lfemur -26.7106 -1.54514 -14.7014
ltibia 19.2343
lfoot -5.88234 4.63476
ltoes -3.1451
143
root -10.0305 17.7358 -8.09332 -90.8391 85.8733 -93.7514
lowerback 11.751 2.71534 5.31454
upperback 0.853982 4.39262 0.667388
thorax -5.34054 2.06562 -2.98423
lowerneck -15.786 -5.4447 -11.3768
upperneck 37.9082 -4.71328 5.02489
head 16.88 -2.38599 3.52554
rclavicle 3.69739e-014 2.72335e-014
rhumerus -32.2661 -9.58607 -80.8395
rradius 30.6403
rwrist 5.29343
rhand -14.0535 8.78796
rfingers 7.12502
rthumb 12.0775 -20.8435
lclavicle 3.69739e-014 2.72335e-014
lhumerus -38.5403 7.79653 81.8879
lradius 29.0801
lwrist -6.70175
lhand -16.476 24.3304
lfingers 7.12502
lthumb 9.74095 54.0851
rfemur 13.3573 -4.87779 29.5912
rtibia 4.07166
rfoot -11.2669 -8.23875
rtoes -6.82093
lfemur -26.44 -2.08042 -14.5385
ltibia 19.4791
lfoot -5.48985 4.61592
ltoes -6.4691
144
root -9.9455 17.7395 -8.11548 -90.0091 85.9537 -92.9843
lowerback 11.727 2.73526 5.19677
upperback 0.808539 4.4019 0.659479
thorax -5.38244 2.07002 -2.92852
lowerneck -15.6999 -5.43461 -11.3766
upperneck 37.939 -4.69876 5.01887
head 16.8731 -2.37988 3.52803
rclavicle -7.61097e-014 1.02374e-014
rhumerus -32.428 -9.68147 -80.7279
rradius 30.498
rwrist 5.64472
rhand -14.154 8.78294
rfingers 7.12502
rthumb 11.9806 -20.8542
lclavicle -7.61097e-014 1.02374e-014
lhumerus -38.5443 7.86115 81.8626
lradius 28.9646
lwrist -6.81348
lhand -14.4086 24.1736
lfingers 7.12502
lthumb 11.7351 53.8248
rfemur 13.6194 -4.79159 29.3871
rtibia 4.02077
rfoot -11.1491 -8.14258
rtoes -6.82888
lfemur -26.2586 -2.15021 -14.7366
ltibia 19.6829
lfoot -5.07835 4.02024
ltoes -6.11506
145
root -9.85985 17.7415 -8.13829 -89.0236 86.0771 -92.1134
lowerback 11.6701 2.72469 5.06781
upperback 0.760098 4.36494 0.619732
thorax -5.41122 2.05189 -2.89104
lowerneck -15.7077 -5.43172 -11.3894
upperneck 38.0201 -4.65646 4.95347
head 16.9129 -2.37344 3.51214
rclavicle -1.2275e-014 6.95746e-016
rhumerus -32.5949 -9.87096 -80.5251
rradius 30.4194
rwrist 6.49587
rhand -13.7647 8.84407
rfingers 7.12502
rthumb 12.356 -20.7708
lclavicle -1.2275e-014 6.95746e-016
lhumerus -38.5358 7.94829 81.7951
lradius 28.8813
lwrist -6.7857
lhand -16.213 24.5964
lfingers 7.12502
lthumb 9.99465 54.3391
rfemur 13.8822 -4.6933 29.1513
rtibia 3.86098
rfoot -10.8753 -8.11006
rtoes -7.18277
lfemur -26.1644 -2.17662 -15.0037
ltibia 19.8305
lfoot -4.35079 3.41571
ltoes -3.21674
146
root -9.76799 17.7466 -8.16068 -87.5095 86.1042 -90.6989
lowerback 11.6182 2.75308 5.03969
upperback 0.690678 4.39415 0.583715
thorax -5.45235 2.06313 -2.91664
lowerneck -15.6501 -5.44731 -11.4921
upperneck 38.1199 -4.66622 5.02203
head 16.9616 -2.38204 3.56538
rclavicle -4.12975e-014 7.7526e-015
rhumerus -32.8142 -10.1419 -80.3994
rradius 30.3678
rwrist 6.78435
rhand -13.5483 8.87955
rfingers 7.12502
rthumb 12.5646 -20.7226
lclavicle -4.12975e-014 7.7526e-015
lhumerus -38.559 8.13478 81.6627
lradius 28.7664
lwrist -6.9358
lhand -18.7568 25.0247
lfingers 7.12502
lthumb 7.5399 54.8703
rfemur 13.9575 -4.5672 29.0254
rtibia 4.15286
rfoot -10.6738 -8.18035
rtoes -9.04076
lfemur -26.0187 -2.44232 -15.0743
ltibia 19.8508
lfoot -3.16339 3.28458
ltoes 1.42772
147
root -9.67397 17.7617 -8.18451 -86.2487 86.0885 -89.5099
lowerback 11.5876 2.80129 5.07304
upperback 0.649902 4.45897 0.550981
thorax -5.46782 2.09208 -2.97851
lowerneck -15.665 -5.46518 -11.5204
upperneck 38.2502 -4.68345 5.0615
head 17.0416 -2.38638 3.5919
rclavicle -1.82261e-014 -5.1684e-015
rhumerus -32.9897 -10.3272 -80.4243
rradius 30.2881
rwrist 6.56187
rhand -13.9127 8.72383
rfingers 7.12502
rthumb 12.2133 -20.8996
lclavicle -1.82261e-014 -5.1684e-015
lhumerus -38.4766 8.18043 81.6247
lradius 28.6319
lwrist -6.7891
lhand -19.7544 25.258
lfingers 7.12502
lthumb 6.57694 55.1359
rfemur 13.8504 -4.45829 28.9147
rtibia 4.88281
rfoot -10.7413 -8.06791
rtoes -11.0216
lfemur -25.8201 -2.63745 -15.1052
ltibia 19.7589
lfoot -1.96296 2.46571
ltoes -2.71972
148
root -9.57889 17.7742 -8.20968 -85.2076 86.1638 -88.5133
lowerback 11.5691 2.79512 5.03192
upperback 0.64853 4.43983 0.489759
thorax -5.45854 2.08297 -3.01569
lowerneck -15.7835 -5.4355 -11.4963
upperneck 38.3876 -4.6124 5.03565
head 17.1362 -2.35714 3.59545
rclavicle -4.73853e-014 -4.67144e-015
rhumerus -33.0209 -10.5754 -80.3991
rradius 30.0104
rwrist 6.61264
rhand -14.0679 8.89894
rfingers 7.12502
rthumb 12.0637 -20.7333
lclavicle -4.73853e-014 -4.67144e-015
lhumerus -38.3621 8.288 81.5079
lradius 28.4943
lwrist -6.73872
lhand -20.0382 24.9724
lfingers 7.12502
lthumb 6.3029 54.8587
rfemur 13.668 -4.37254 28.6928
rtibia 5.76647
rfoot -10.8575 -7.93228
rtoes -10.6103
lfemur -25.5884 -2.49659 -15.3482
ltibia 19.5801
lfoot -0.675608 1.78117
ltoes -2.24565
149
root -9.48186 17.7813 -8.23499 -84.5566 86.2839 -87.8771
lowerback 11.5662 2.77514 4.90481
upperback 0.645917 4.39478 0.467859
thorax -5.47103 2.06302 -2.96116
lowerneck -15.7834 -5.4082 -11.6086
upperneck 38.4426 -4.54596 5.08686
head 17.1657 -2.33956 3.65472
rclavicle -3.52843e-015 -6.85807e-015
rhumerus -33.1025 -10.7787 -80.2733
rradius 29.8196
rwrist 6.69098
rhand -13.9671 8.94553
rfingers 7.12502
rthumb 12.1608 -20.681
lclavicle -3.52843e-015 -6.85807e-015
lhumerus -38.3526 8.70316 81.3363
lradius 28.3805
lwrist -7.22962
lhand -19.0151 24.5892
lfingers 7.12502
lthumb 7.29061 54.4436
rfemur 13.4437 -4.32285 28.4229
rtibia 6.78073
rfoot -10.933 -7.82513
rtoes -7.45968
lfemur -25.2973 -2.2008 -15.6982
ltibia 19.3419
lfoot 0.59716 1.3741
ltoes 2.44986
150
root -9.38293 17.7912 -8.26182 -84.4391 86.4032 -87.7469
lowerback 11.5862 2.78378 4.79777
upperback 0.64127 4.39162 0.442872
thorax -5.49324 2.0628 -2.92874
lowerneck -15.7673 -5.42067 -11.6657
upperneck 38.5075 -4.55074 5.1166
head 17.2022 -2.34514 3.68133
rclavicle 3.39922e-014 -1.07344e-014
rhumerus -33.2794 -10.8339 -80.2172
rradius 29.7666
rwrist 6.58303
rhand -14.3371 8.56874
rfingers 7.12502
rthumb 11.8041 -21.0786
lclavicle 3.39922e-014 -1.07344e-014
lhumerus -38.3524 8.98495 81.2316
lradius 28.3225
lwrist -7.56536
lhand -18.1501 24.549
lfingers 7.12502
lthumb 8.12551 54.3728
rfemur 13.1629 -4.31315 28.1546
rtibia 7.95856
rfoot -11.0584 -7.80834
rtoes -6.20419
lfemur -24.8998 -2.52279 -15.8841
ltibia 19.0692
lfoot 1.51621 1.51181
ltoes 6.93441
151
root -9.28348 17.8033 -8.29114 -83.1873 86.5642 -86.5475
lowerback 11.544 2.80246 4.62509
upperback 0.630746 4.38695 0.382039
thorax -5.4889 2.06359 -2.89317
lowerneck -15.8165 -5.40138 -11.5984
upperneck 38.5914 -4.51931 5.08515
head 17.2527 -2.32631 3.66508
rclavicle -9.87711e-015 -1.99779e-014
rhumerus -33.3923 -11.0181 -80.1501
rradius 29.6272
rwrist 6.66858
rhand -14.5803 8.50909
rfingers 7.12502
rthumb 11.5695 -21.1516
lclavicle -9.87711e-015 -1.99779e-014
lhumerus -38.3056 9.17419 81.1056
lradius 28.2805
lwrist -7.70347
lhand -18.2383 24.7337
lfingers 7.12502
lthumb 8.04038 54.5608
rfemur 12.811 -4.23695 27.8434
rtibia 9.20093
rfoot -10.9896 -7.96885
rtoes -9.62028
lfemur -24.5302 -2.93986 -16.0631
ltibia 18.8056
lfoot 1.93542 1.72464
ltoes 8.96101
152
root -9.18096 17.8153 -8.32115 -80.5796 86.698 -84.0104
lowerback 11.4834 2.84546 4.41259
upperback 0.600451 4.41013 0.341233
thorax -5.49756 2.07844 -2.81814
lowerneck -15.9073 -5.39583 -11.5148
upperneck 38.7315 -4.48903 5.01107
head 17.3439 -2.31135 3.62844
rclavicle 5.29016e-014 -3.18055e-015
rhumerus -33.5222 -11.137 -80.0357
rradius 29.5139
rwrist 6.6895
rhand -14.3052 8.53704
rfingers 7.12502
rthumb 11.8348 -21.1085
lclavicle 5.29016e-014 -3.18055e-015
lhumerus -38.3359 9.28088 81.0156
lradius 28.2637
lwrist -7.65302
lhand -18.5314 24.654
lfingers 7.12502
lthumb 7.75745 54.4917
rfemur 12.5171 -4.07758 27.4973
rtibia 10.4029
rfoot -10.9744 -7.83801
rtoes -11.7435
lfemur -24.1953 -2.57444 -16.4193
ltibia 18.5971
lfoot 2.27032 1.25744
ltoes 9.42713
153
root -9.07492 17.8323 -8.35193 -78.7936 86.7583 -82.2141
lowerback 11.4807 2.85668 4.36087
upperback 0.599622 4.41478 0.292742
thorax -5.49649 2.08127 -2.84057
lowerneck -15.9893 -5.38391 -11.5186
upperneck 38.8606 -4.46563 5.05073
head 17.4357 -2.2967 3.65857
rclavicle -2.43511e-014 2.59414e-014
rhumerus -33.7283 -11.1094 -79.9939
rradius 29.5523
rwrist 6.65011
rhand -14.1168 8.30097
rfingers 7.12502
rthumb 12.0165 -21.3341
lclavicle -2.43511e-014 2.59414e-014
lhumerus -38.3925 9.17416 81.0086
lradius 28.3636
lwrist -7.37593
lhand -18.5126 24.7358
lfingers 7.12502
lthumb 7.77561 54.5728
rfemur 12.3968 -3.80992 27.1906
rtibia 11.5089
rfoot -11.2165 -7.37363
rtoes -8.76981
lfemur -23.7997 -2.00628 -16.7864
ltibia 18.5119
lfoot 2.61164 0.700386
ltoes 7.75668
154
root -8.97032 17.8491 -8.38457 -77.9866 86.7939 -81.395
lowerback 11.5058 2.81401 4.35208
upperback 0.601769 4.35762 0.282329
thorax -5.51239 2.0528 -2.83968
lowerneck -15.9747 -5.31747 -11.5523
upperneck 38.865 -4.34591 5.03593
head 17.4203 -2.25535 3.68141
rclavicle 7.88927e-015 -1.32192e-014
rhumerus -33.8707 -11.1574 -79.8634
rradius 29.4835
rwrist 6.82373
rhand -13.9794 8.43817
rfingers 7.12502
rthumb 12.149 -21.1891
lclavicle 7.88927e-015 -1.32192e-014
lhumerus -38.5072 9.17077 81.0084
lradius 28.6156
lwrist -7.16267
lhand -18.3162 24.8569
lfingers 7.12502
lthumb 7.96521 54.6868
rfemur 12.2058 -3.65559 26.9263
rtibia 12.6251
rfoot -11.2408 -6.97543
rtoes -6.6824
lfemur -23.4021 -1.87031 -17.0036
ltibia 18.5056
lfoot 2.84262 0.849095
ltoes 6.33685
155
root -8.87084 17.8609 -8.41 -77.8693 86.7079 -81.2974
lowerback 11.586 2.79419 4.33724
upperback 0.56596 4.33984 0.365591
thorax -5.60419 2.04204 -2.74833
lowerneck -15.9673 -5.29415 -11.4962
upperneck 38.9048 -4.24327 4.83363
head 17.42 -2.23284 3.59902
rclavicle -6.83322e-015 6.75868e-015
rhumerus -33.911 -11.3959 -79.6225
rradius 29.2492
rwrist 7.02883
rhand -13.9561 8.71224
rfingers 7.12502
rthumb 12.1715 -20.9137
lclavicle -6.83322e-015 6.75868e-015
lhumerus -38.6314 9.51575 80.9495
lradius 28.8226
lwrist -7.32531
lhand -18.2513 24.7123
lfingers 7.12502
lthumb 8.02779 54.5398
rfemur 11.8072 -3.93731 26.7604
rtibia 13.8392
rfoot -10.9306 -6.54809
rtoes -7.24637
lfemur -23.0725 -1.70887 -17.0235
ltibia 18.5052
lfoot 3.02699 1.0708
ltoes 6.52951
156
root -8.76983 17.8734 -8.43196 -77.6891 86.6361 -81.0784
lowerback 11.6999 2.75917 4.25798
upperback 0.555228 4.29421 0.438193
thorax -5.69413 2.01982 -2.62909
lowerneck -16.0104 -5.23408 -11.3516
upperneck 38.99 -4.11923 4.6608
head 17.4518 -2.18443 3.52113
rclavicle 6.88043e-014 1.39149e-015
rhumerus -33.9461 -11.4692 -79.4978
rradius 29.0992
rwrist 7.18836
rhand -13.9188 8.76894
rfingers 7.12502
rthumb 12.2074 -20.8548
lclavicle 6.88043e-014 1.39149e-015
lhumerus -38.7108 9.87503 80.8454
lradius 28.9786
lwrist -7.48582
lhand -18.3487 24.7905
lfingers 7.12502
lthumb 7.93383 54.6216
rfemur 11.4469 -4.06144 26.6429
rtibia 15.1109
rfoot -10.5205 -6.31057
rtoes -7.81621
lfemur -22.7061 -1.07469 -17.1734
ltibia 18.5266
lfoot 3.05272 0.551243
ltoes 6.04598
